<?xml version="1.0" standalone="no"?>
<!DOCTYPE svg PUBLIC "-//W3C//DTD SVG 20010904//EN"
 "http://www.w3.org/TR/2001/REC-SVG-20010904/DTD/svg10.dtd">
<svg version="1.0" xmlns="http://www.w3.org/2000/svg"
 width="1178.000000pt" height="626.000000pt" viewBox="0 0 1178.000000 626.000000"
 preserveAspectRatio="xMidYMid meet">

<g transform="translate(0.000000,626.000000) scale(0.100000,-0.100000)"
fill="#000000" stroke="none">
<path d="M1136 4551 c-620 -357 -1128 -651 -1129 -655 -1 -3 282 -177 630
-385 l631 -379 501 300 501 301 0 733 c0 404 -1 734 -3 734 -2 0 -510 -292
-1131 -649z"/>
<path d="M3190 4362 c-19 -2 -49 -9 -65 -17 -17 -7 -43 -12 -58 -11 -15 2 -34
-2 -43 -9 -13 -9 -4 -10 40 -5 31 3 61 11 68 18 7 7 30 12 51 12 31 0 45 -7
67 -30 21 -22 35 -29 52 -26 73 15 95 15 113 1 17 -12 18 -16 6 -24 -13 -8
-13 -15 -1 -51 8 -24 26 -54 41 -69 43 -43 255 -141 277 -128 4 3 43 -3 87
-14 53 -13 110 -19 170 -17 62 1 104 -4 135 -15 64 -24 182 -23 203 1 10 10
17 22 17 25 0 4 -53 7 -117 7 -65 0 -137 5 -160 10 -24 6 -73 14 -110 20 -67
9 -185 55 -253 97 -42 26 -91 110 -71 122 20 13 8 44 -19 52 -14 4 -56 7 -94
8 -55 1 -74 5 -91 21 -17 16 -37 20 -115 22 -52 2 -111 2 -130 0z"/>
<path d="M5324 4303 c-9 -15 -31 -17 -215 -14 -174 2 -211 0 -247 -14 -24 -10
-41 -19 -39 -21 2 -3 21 3 42 12 25 10 52 14 75 10 19 -4 108 -9 197 -13 l162
-6 25 27 c20 23 28 26 45 17 12 -7 18 -17 15 -26 -9 -24 35 -84 73 -100 46
-19 77 -19 130 1 41 16 44 16 63 -1 11 -10 20 -31 20 -46 0 -29 45 -83 80 -94
21 -7 60 10 60 25 0 15 58 12 90 -5 17 -9 30 -22 30 -30 0 -8 12 -17 28 -20
15 -3 49 -12 75 -21 44 -14 50 -14 66 0 23 21 30 20 52 -8 10 -13 29 -23 43
-23 13 0 53 -3 88 -7 61 -6 102 2 153 31 11 6 43 14 70 18 28 3 63 11 78 17
23 9 34 8 56 -5 18 -10 57 -17 117 -19 75 -2 94 0 119 17 l29 20 -124 3 c-69
2 -167 -2 -218 -8 l-92 -13 -21 26 c-26 34 -75 47 -182 47 l-87 0 -12 46 c-18
64 -41 74 -177 74 l-110 0 -20 29 c-12 16 -19 36 -15 44 3 9 -4 21 -18 31 -19
14 -58 16 -258 16 -211 0 -236 -2 -246 -17z"/>
<path d="M2985 4293 c-34 -8 -38 -20 -5 -15 16 2 30 8 30 13 0 5 -1 8 -2 8 -2
-1 -12 -3 -23 -6z"/>
<path d="M7484 4282 c-6 -4 -13 -14 -16 -23 -5 -13 -32 -17 -150 -23 -113 -6
-145 -11 -152 -23 -12 -22 -69 -73 -82 -73 -3 0 -17 -9 -31 -20 -14 -11 -33
-20 -42 -20 -18 -1 -101 -70 -84 -70 6 0 24 14 40 30 15 17 35 30 43 30 22 0
121 66 150 100 24 28 27 29 69 19 36 -8 47 -7 62 7 16 14 32 16 94 11 l75 -7
15 30 c17 34 64 44 61 13 0 -9 8 -19 19 -23 29 -8 85 -44 85 -53 0 -18 32 -39
51 -34 21 6 49 -16 49 -38 0 -8 9 -17 20 -20 29 -9 70 -74 70 -110 0 -17 -7
-41 -16 -53 -11 -17 -13 -26 -5 -36 6 -7 8 -16 5 -19 -4 -3 3 -18 15 -33 12
-15 19 -35 16 -44 -9 -29 72 -46 141 -30 l54 13 54 -37 c29 -20 62 -46 71 -56
18 -20 18 -20 -14 -9 -44 16 -61 -1 -61 -60 0 -57 -12 -71 -60 -71 -20 0 -39
-3 -43 -6 -8 -9 13 -56 35 -76 12 -10 18 -28 16 -47 -1 -20 5 -38 20 -54 14
-15 22 -36 22 -60 0 -20 4 -37 9 -37 6 0 11 -19 13 -42 3 -36 7 -44 26 -46 20
-3 22 -7 17 -35 -4 -18 -16 -53 -27 -79 -22 -52 -18 -68 16 -68 13 0 29 -7 36
-15 7 -8 21 -15 31 -15 14 0 19 -11 24 -55 7 -52 10 -57 45 -75 30 -15 37 -24
33 -40 -3 -13 -17 -23 -33 -27 -16 -3 -46 -22 -68 -44 -34 -32 -42 -36 -52
-24 -7 8 -9 26 -6 39 12 50 -62 77 -99 36 -14 -15 -31 -20 -72 -20 -30 0 -64
5 -75 11 -19 10 -61 12 -179 10 -32 -1 -38 -5 -54 -40 -11 -26 -27 -43 -45
-50 -32 -11 -40 -6 -40 21 0 10 -10 22 -22 27 -18 7 -30 2 -55 -20 -19 -16
-66 -38 -118 -54 -70 -21 -102 -25 -178 -23 -83 2 -98 -1 -152 -27 -33 -16
-67 -34 -75 -41 -34 -28 -160 -84 -225 -100 -97 -23 -252 -20 -280 6 -11 10
-41 24 -67 31 -45 12 -51 12 -115 -18 -131 -60 -169 -72 -230 -76 -53 -3 -63
-1 -63 13 0 11 -14 21 -39 28 -82 25 -91 17 -94 -91 -1 -51 2 -67 17 -83 19
-19 19 -19 -27 -28 -46 -8 -47 -9 -47 -47 0 -33 -4 -40 -25 -45 -14 -3 -25
-11 -25 -18 0 -6 -4 -17 -9 -25 -7 -11 -14 -10 -39 4 -25 15 -28 21 -19 36 8
14 4 27 -21 66 -18 26 -32 45 -32 40 0 -4 12 -26 27 -48 23 -35 25 -44 14 -61
-7 -11 -11 -21 -9 -22 85 -46 84 -46 195 -46 61 0 171 3 247 7 131 6 137 7
142 29 4 15 16 25 35 29 26 6 29 11 29 45 0 40 13 50 68 50 30 0 41 29 17 46
-12 9 -19 27 -19 56 l-1 43 140 8 c79 4 155 14 175 22 26 10 107 15 310 19
335 7 401 18 565 99 181 89 176 87 288 87 61 0 126 7 162 16 90 24 255 35 613
40 270 4 324 7 329 20 3 7 11 14 18 14 7 0 18 7 25 15 8 9 29 15 56 15 l43 0
-1 41 c0 36 -4 42 -32 54 -44 19 -57 36 -59 84 -1 32 -6 42 -27 52 -14 6 -33
15 -42 20 -10 5 -26 9 -36 9 -29 0 -32 10 -15 44 15 29 31 81 36 115 1 8 -9
17 -23 21 -20 5 -26 13 -28 40 -2 19 -8 39 -13 45 -5 5 -9 26 -9 47 0 21 -4
38 -9 38 -21 0 -41 34 -41 70 0 28 -5 39 -19 43 -10 2 -23 18 -29 36 l-11 31
40 0 c61 0 79 14 79 60 l0 40 60 0 c33 0 60 4 60 8 0 20 -68 76 -149 122 -17
10 -62 16 -134 18 -59 2 -105 7 -102 12 3 5 -6 22 -20 38 -29 34 -32 60 -14
118 12 39 11 45 -15 88 -16 28 -36 48 -51 52 -13 3 -27 16 -31 27 -9 28 -22
37 -57 37 -15 0 -30 6 -33 14 -3 8 -34 31 -69 52 -36 20 -62 40 -60 44 3 5 -2
11 -11 14 -23 9 -747 7 -760 -2z"/>
<path d="M2941 4255 c-1 -5 15 -23 34 -38 19 -15 35 -36 36 -45 0 -10 3 -12 5
-5 7 15 -35 73 -52 73 -7 0 -15 6 -17 13 -3 6 -6 8 -6 2z"/>
<path d="M4775 4240 c-13 -6 -15 -9 -5 -9 8 0 22 4 30 9 18 12 2 12 -25 0z"/>
<path d="M4655 4205 c-27 -14 -44 -25 -37 -25 7 0 27 8 45 17 18 9 46 20 62
24 27 6 28 7 5 8 -14 0 -47 -11 -75 -24z"/>
<path d="M4576 4161 c-10 -11 -31 -25 -47 -31 -16 -7 -28 -15 -25 -17 7 -7 59
23 80 46 11 12 17 21 14 21 -3 0 -13 -9 -22 -19z"/>
<path d="M2963 4102 c-18 -9 -33 -20 -33 -25 0 -4 15 0 33 10 17 9 35 17 39
18 3 0 10 3 14 8 13 13 -20 6 -53 -11z"/>
<path d="M4431 4079 c-30 -16 -60 -29 -67 -29 -8 0 -14 -4 -14 -9 0 -12 87 24
120 49 34 27 24 24 -39 -11z"/>
<path d="M2922 4030 c0 -14 2 -19 5 -12 2 6 2 18 0 25 -3 6 -5 1 -5 -13z"/>
<path d="M2909 3969 l-24 -20 28 17 c15 9 27 18 27 20 0 8 -8 4 -31 -17z"/>
<path d="M3414 3980 c-12 -5 -25 -13 -28 -19 -5 -7 -15 -7 -32 -1 -14 6 -41
10 -60 10 -28 0 -38 -6 -58 -38 -26 -42 -80 -92 -99 -92 -27 0 -129 -49 -143
-68 -8 -11 -30 -30 -49 -42 -19 -12 -35 -26 -35 -32 0 -11 -29 -37 -43 -38 -4
0 0 11 9 25 9 14 14 34 11 45 -4 15 4 25 34 42 21 12 37 23 35 25 -5 5 -80
-39 -84 -49 -2 -4 -25 -8 -50 -8 -31 0 -42 -3 -33 -9 26 -17 4 -41 -36 -41
l-38 1 24 19 c26 22 15 28 -14 7 -31 -23 -8 -37 62 -37 54 0 64 -3 59 -15 -3
-8 -1 -15 4 -15 19 0 -13 -49 -36 -54 -13 -4 -24 -11 -24 -17 0 -6 7 -8 16 -5
8 3 13 2 11 -2 -3 -4 1 -13 9 -20 11 -10 14 -10 14 0 0 7 5 30 11 51 7 26 15
37 29 37 11 0 27 12 37 28 10 15 23 30 30 35 6 4 27 20 44 35 24 20 45 27 78
28 25 1 61 5 79 9 28 6 34 4 39 -13 9 -38 127 -58 153 -27 10 12 10 15 -3 15
-13 0 -32 26 -29 41 1 3 -22 4 -51 2 -38 -2 -47 -1 -32 6 30 14 61 13 117 -6
44 -14 48 -18 34 -28 -27 -20 -19 -25 47 -25 34 0 107 -5 161 -10 71 -7 103
-7 112 1 19 15 8 29 -22 29 -34 0 -66 18 -58 32 4 7 3 8 -5 4 -6 -4 -36 -2
-67 4 -50 11 -54 13 -37 25 27 20 10 29 -62 33 l-64 4 37 44 c41 49 25 47 211
28 68 -7 77 -10 111 -46 21 -21 44 -38 51 -39 27 -2 -36 -17 -76 -18 -22 -1
-51 -9 -65 -17 -16 -10 -18 -13 -5 -8 32 11 144 25 222 27 40 1 73 5 73 8 0 9
-55 21 -115 24 -43 3 -56 9 -99 48 -44 41 -51 44 -76 35 -22 -7 -44 -4 -102
16 -79 28 -100 30 -134 16z m-118 -152 c-20 -11 -44 1 -25 12 6 5 19 6 27 3
12 -5 12 -7 -2 -15z m329 -68 c3 -6 -4 -10 -17 -10 -18 0 -20 2 -8 10 19 12
18 12 25 0z"/>
<path d="M2866 3925 c-10 -8 -23 -16 -29 -18 -6 -2 -7 -14 -3 -30 5 -22 12
-27 34 -26 24 2 25 2 4 6 -36 7 -39 32 -6 59 31 25 31 33 0 9z"/>
<path d="M2940 3850 c-45 -7 -45 -7 18 -8 64 -2 82 -15 36 -26 -15 -4 -24 -9
-21 -12 9 -9 88 28 84 40 -4 13 -55 16 -117 6z"/>
<path d="M11145 3205 c-341 -205 -624 -377 -630 -382 -5 -5 -234 -143 -507
-307 l-498 -299 0 -734 0 -733 33 17 c19 10 530 303 1135 652 l1102 635 0 763
c0 420 -3 763 -7 762 -5 0 -287 -169 -628 -374z"/>
<path d="M2820 3490 c-8 -18 -9 -35 -4 -40 5 -5 61 -10 124 -11 112 -3 115 -2
118 20 3 22 2 22 -60 16 -35 -4 -70 -9 -78 -12 -8 -3 -34 -7 -57 -10 -46 -5
-52 2 -32 39 6 11 9 22 6 24 -2 3 -10 -9 -17 -26z"/>
<path d="M3010 3421 c0 -5 -14 -18 -31 -29 -31 -20 -31 -24 6 -35 18 -6 18 -5
3 5 -15 11 -14 15 15 40 18 15 26 27 20 28 -7 0 -13 -4 -13 -9z"/>
<path d="M3000 3334 c0 -5 5 -15 12 -22 8 -8 8 -15 -2 -26 -18 -22 -5 -46 25
-46 29 0 32 -8 8 -27 -32 -24 -85 -43 -123 -43 -52 0 -65 -18 -45 -65 20 -50
19 -55 -9 -55 -13 0 -29 -7 -36 -15 -10 -13 -7 -17 21 -29 19 -8 43 -24 53
-35 12 -13 31 -21 53 -21 21 0 36 -6 39 -15 4 -8 19 -15 34 -15 16 0 32 -4 35
-10 3 -5 15 -10 25 -10 11 0 20 -9 23 -22 3 -20 4 -20 3 2 -1 18 -7 26 -23 28
-13 2 -23 7 -23 12 0 5 -16 12 -35 16 -19 3 -35 12 -35 19 0 8 -7 21 -16 30
-15 14 -18 14 -41 0 -23 -15 -26 -15 -54 9 -17 15 -37 26 -45 26 -9 0 -12 5
-9 10 3 6 17 10 31 10 33 0 40 23 20 65 -26 53 -4 74 34 33 13 -14 20 -35 20
-60 0 -37 13 -51 23 -25 4 9 7 9 14 0 12 -16 105 -3 111 16 4 11 -2 13 -27 8
-20 -4 -31 -3 -31 5 0 6 -11 26 -26 45 -28 37 -25 53 12 53 14 0 24 6 24 14 0
8 9 18 20 21 36 12 16 35 -31 35 -21 0 -25 20 -8 37 8 8 7 17 -5 34 -9 13 -16
19 -16 13z"/>
<path d="M3080 2814 c-14 -7 -34 -14 -45 -14 -15 -1 -12 -5 13 -18 28 -14 33
-21 30 -44 -3 -17 0 -28 7 -28 16 0 6 60 -11 67 -22 8 -17 20 11 27 14 4 25
11 25 16 0 6 -1 10 -2 9 -2 -1 -14 -7 -28 -15z"/>
<path d="M3135 2689 c-4 -6 -18 -9 -31 -6 -13 2 -21 1 -19 -3 3 -4 21 -11 41
-14 24 -5 34 -12 31 -21 -6 -13 29 -28 45 -19 13 8 -3 26 -18 20 -8 -3 -14 1
-14 9 0 8 -5 15 -11 15 -5 0 -8 4 -4 9 3 5 1 12 -4 15 -5 4 -13 1 -16 -5z"/>
<path d="M3170 2611 c0 -6 -15 -11 -33 -11 -18 0 -38 -5 -44 -11 -15 -15 -4
-49 16 -50 9 0 70 0 136 -1 66 0 110 -2 99 -5 -12 -2 -24 -13 -27 -24 -4 -16
-14 -19 -60 -19 -31 0 -59 -4 -62 -10 -4 -6 1 -7 11 -3 14 5 16 3 11 -11 -4
-10 -7 -20 -7 -22 0 -2 -18 -4 -40 -4 -22 0 -40 5 -40 10 0 6 5 10 12 10 6 0
8 3 5 6 -4 4 -14 1 -22 -6 -25 -20 -2 -29 101 -37 49 -3 84 -8 77 -10 -7 -3
-10 -10 -7 -17 5 -14 146 -13 262 0 48 6 52 5 52 -15 0 -11 5 -21 11 -21 6 0
9 -10 7 -22 -4 -29 65 -84 117 -94 39 -7 61 -34 43 -52 -9 -9 20 -12 118 -12
112 0 133 3 159 20 25 17 47 20 132 20 l102 0 29 36 c19 22 28 43 25 55 -3 10
1 26 8 35 8 9 12 27 11 40 -2 13 -1 24 2 24 4 0 32 -13 63 -30 31 -16 61 -30
68 -30 12 0 38 -35 73 -96 13 -23 63 -64 79 -64 4 0 -5 9 -20 19 -16 10 -36
30 -45 43 -10 14 -29 43 -44 65 -15 23 -38 43 -53 47 -14 4 -63 27 -108 52
-82 46 -135 60 -237 66 -49 3 -55 1 -67 -22 -7 -14 -13 -44 -13 -67 0 -23 -4
-45 -10 -48 -5 -3 -10 -19 -10 -34 0 -15 -6 -35 -13 -45 -12 -16 -14 -16 -26
-2 -17 20 -41 20 -77 1 -16 -8 -39 -15 -51 -15 -12 0 -25 -4 -28 -10 -3 -5
-19 -10 -36 -10 -16 0 -29 5 -29 10 0 6 -9 10 -19 10 -11 0 -23 5 -26 10 -3 6
-15 10 -26 10 -34 0 -79 41 -79 72 0 15 -4 28 -10 28 -5 0 -10 7 -10 15 0 8 6
15 12 15 7 0 0 12 -15 28 -28 27 -28 27 -45 7 -14 -17 -22 -19 -45 -11 -16 6
-30 20 -33 33 -4 13 -14 23 -23 23 -9 0 -22 5 -29 12 -9 9 -12 8 -12 -5 0 -15
-4 -16 -20 -7 -19 10 -22 9 -24 -16 -1 -6 -17 -24 -36 -40 -19 -16 -30 -23
-26 -15 5 8 3 17 -5 22 -11 7 -10 9 4 9 9 0 17 5 17 10 0 6 -20 10 -45 10 -26
0 -45 5 -45 11 0 7 12 9 34 5 30 -6 34 -4 40 19 4 14 14 25 24 25 17 1 52 22
52 33 0 4 -67 5 -150 3 -111 -2 -150 0 -154 10 -7 19 4 24 51 24 40 0 55 11
33 25 -5 3 -10 1 -10 -4z"/>
<path d="M5660 2481 c-19 -16 -44 -30 -55 -33 -15 -2 -19 -10 -17 -31 3 -22
-1 -27 -17 -27 -11 0 -31 -5 -43 -11 -20 -8 -37 -3 -111 35 -49 25 -96 46
-107 46 -37 0 -157 -107 -196 -175 -7 -12 -21 -19 -33 -18 -13 2 -32 -8 -47
-24 -22 -24 -33 -27 -110 -31 -46 -3 -87 -8 -90 -13 -3 -5 -15 -9 -27 -9 -12
0 -40 -7 -62 -15 -37 -13 -25 -14 172 -15 131 0 214 4 218 10 3 6 24 10 45 10
21 0 42 5 45 10 3 6 39 10 79 10 40 0 101 3 136 7 57 6 64 9 74 35 6 15 16 28
23 28 7 0 13 7 13 17 0 28 60 73 97 73 18 0 33 -3 33 -7 0 -3 -12 -22 -26 -42
-24 -34 -23 -33 13 6 21 22 50 49 66 58 34 21 37 70 6 109 -26 33 -35 32 -79
-3z"/>
<path d="M4675 2180 c3 -5 11 -10 16 -10 6 0 7 5 4 10 -3 6 -11 10 -16 10 -6
0 -7 -4 -4 -10z"/>
<path d="M4801 1908 c-118 -80 6 -221 144 -164 35 15 65 59 65 95 0 12 -13 35
-29 53 -24 27 -36 32 -87 36 -50 3 -64 0 -93 -20z"/>
<path d="M5138 1914 c-34 -18 -48 -43 -48 -86 0 -98 165 -134 230 -50 55 69
-3 152 -105 152 -27 -1 -62 -7 -77 -16z"/>
<path d="M3880 1570 l0 -110 110 0 110 0 0 -275 0 -275 145 0 145 0 0 275 0
275 110 0 110 0 0 110 0 110 -365 0 -365 0 0 -110z"/>
<path d="M4700 1403 c0 -172 4 -293 11 -318 33 -118 134 -184 292 -193 171 -9
299 47 361 158 l31 55 3 288 4 287 -146 0 -146 0 0 -260 c0 -247 -1 -261 -20
-280 -26 -26 -62 -25 -86 1 -17 19 -19 42 -22 280 l-3 259 -140 0 -139 0 0
-277z"/>
<path d="M5570 1295 l0 -385 140 0 140 0 0 280 0 280 53 0 c61 0 101 -17 105
-45 5 -32 -20 -56 -66 -62 l-42 -6 0 -102 0 -102 67 -122 68 -121 152 0 153 0
-82 158 -82 158 43 40 c157 141 74 354 -157 403 -30 6 -148 11 -272 11 l-220
0 0 -385z"/>
<path d="M6440 1295 l0 -385 140 0 140 0 0 385 0 385 -140 0 -140 0 0 -385z"/>
<path d="M6942 1628 c-20 -29 -76 -106 -124 -173 l-86 -120 108 -210 108 -210
161 -3 c89 -1 161 0 161 3 0 3 -56 97 -124 209 l-124 205 124 170 c68 94 124
173 124 176 0 3 -65 5 -145 5 l-145 0 -38 -52z"/>
</g>
</svg>
